<?xml version="1.0" encoding="utf-8"?>
<!-- Generator: Adobe Illustrator 23.0.1, SVG Export Plug-In . SVG Version: 6.00 Build 0)  -->
<svg version="1.1" id="Layer_1" xmlns="http://www.w3.org/2000/svg" xmlns:xlink="http://www.w3.org/1999/xlink" x="0px" y="0px"
	 viewBox="0 0 400 400" style="enable-background:new 0 0 400 400;" xml:space="preserve">
<style type="text/css">
	.st0{fill:#4C7587;}
	.st1{fill:#8AD5EE;}
	.st2{fill:#5D72B7;}
	.st3{fill:#121444;}
	.st4{font-family:'Lobster-Regular';}
	.st5{font-size:36px;}
</style>
<path class="st0" d="M177.04,267.07c-5.86-10.92,11.94-22.2,27.53-56.24c17.96-39.19,18.79-78.24,19.2-83.81
	c1.56-21.23-2.93-30.56,0.52-31.86c8.12-3.07,37.86,44.46,52.53,94.74c5.16,17.69,7.96,34.05,9.5,43.15
	c6.88,40.78,13.35,59.34,6.14,63.61c-1.17,0.69-2.11,0.68-9.33-0.18c-15.77-1.88-23.66-2.82-28.64-3.93
	c-15.74-3.51-19.78-6.37-39.57-12.58C185.08,270.6,180.02,272.61,177.04,267.07z"/>
<path class="st1" d="M103.83,279.05c0.03,0.3,7.1-1.16,16.51,0.06c9.53,1.24,14.98,4.39,23.65,8.2
	c13.36,5.86,12.48,3.67,32.08,11.01c18.62,6.97,19.05,8.81,34.33,14.62c10.86,4.12,23.31,8.85,39.71,11.5
	c27.47,4.44,48.42,0.19,53.53-0.92c9.94-2.16,23.27-5.21,36.25-15.4c9.04-7.09,15.06-15.41,14.33-16.2
	c-0.68-0.74-6.72,5.85-18.46,10.13c-4.08,1.49-7.7,2.17-14.79,3.48c-6.42,1.18-13.03,2.47-21.89,3.05
	c-7.51,0.49-13.88,0.67-22.79-1.4c-14.46-3.37-12.94-2.74-18.89-3.76c-11.84-2.02-13.96-2.28-22.11-4.41
	c-13.69-3.56-19.57-6.22-29.74-10.96c-28.44-13.27-55.83-13.7-64.18-13.76C120.57,274.16,103.78,278.6,103.83,279.05z"/>
<path class="st2" d="M5.45,286.58c0.17,1.26,8.89,0.19,20.71,1.76c7.66,1.02,12.83,2.66,22.04,5.57
	c4.92,1.56,12.79,4.22,29.25,11.36c11.73,5.09,20.6,9.31,26.97,12.37c35.95,17.26,33.87,17.33,47.55,23.28
	c10.76,4.68,25.47,11.01,45.59,16.23c11.39,2.95,23.9,6.19,40.5,7.1c11.99,0.66,33.3,1.62,58.34-7.33
	c31.6-11.29,51.4-32.44,51.06-32.93c-0.13-0.19-3.64,2.44-10.37,5.05c-3.32,1.29-5.8,1.95-9.54,2.93
	c-9.55,2.5-11.13,1.99-17.67,4.04c-5.78,1.81-5.47,2.5-10.37,4.01c-4.31,1.33-9.42,2.3-17.36,2.43
	c-23.51,0.38-44.66-3.96-44.66-3.96c-36.28-7.45-63.54-19.31-75.96-25.1c-15.43-7.2-12.6-7.2-24.48-12.3
	c-22.27-9.57-39.24-12.58-68.26-17.54c-17.79-3.04-34.54-5.01-52.55-0.92C11.68,283.68,5.3,285.49,5.45,286.58z"/>
<path class="st3" d="M179.44,185.03c-9.94-4.42-18.73-11.02-25.65-19.78c-27.12-34.31-15.4-88.76,26.18-121.63
	c25.27-19.98,55.76-27.37,81.87-22.4c-28.99-12.91-67.77-7.31-98.73,17.16c-41.58,32.86-53.3,87.32-26.18,121.63
	C147.57,173.47,162.6,181.82,179.44,185.03z"/>
<text transform="matrix(1 0 0 1 204.7272 73.0002)" class="st3 st4 st5">abot Cruises</text>
</svg>
